<svg width="108" height="40" fill="none" xmlns="http://www.w3.org/2000/svg"><g clip-path="url(#clip0_4_134)" fill="#000"><path d="M.054 26.985c.546 4.56 6.043 8 12.786 8 6.062 0 11.211-2.798 12.524-6.803l.002-.002a6.166 6.166 0 00.314-1.917 5.451 5.451 0 00-.041-.587l-.007-.062a7.215 7.215 0 00-2.408-4.453 12.313 12.313 0 004.743 1.041 7.649 7.649 0 003.88-.974h.001a5.996 5.996 0 001.246-.942c.28-.285.53-.598.748-.934 2.462-3.705.887-9.93-3.664-14.48C25.964.658 20.17-1.056 16.4.797a6.133 6.133 0 00-1.64 1.157 5.917 5.917 0 00-.488.569c-2.804 3.61-1.308 10.132 3.407 14.847.466.465.956.904 1.468 1.317a17.545 17.545 0 00-6.308-1.146c-6.02 0-11.3 2.892-12.552 6.876A6.158 6.158 0 000 26.263c.003.241.021.482.054.722zm12.786 6.833c-5.677 0-10.523-2.696-11.488-6.257l.07.007c.208.024.406.05.592.08.027.003.052.008.079.013.173.029.338.06.498.093l.08.016c.17.037.335.075.497.114l.104.026.465.119c1.505.427 3.064.63 4.628.601a15.81 15.81 0 004.622-.602 14.613 14.613 0 014.327-.565 14.61 14.61 0 014.33.564l.444.114.104.027c.16.04.324.078.494.115l.064.014c.158.033.323.066.494.096l.09.016c.186.032.383.06.59.087l.054.008c-1.509 3.118-6.03 5.314-11.138 5.314zm16.513-28.12c3.823 3.823 5.424 9.055 3.893 12.335l-.046-.055a13.275 13.275 0 01-.426-.525l-.032-.043c-.122-.16-.233-.316-.337-.467l-.051-.074a16.5 16.5 0 01-.3-.46l-.055-.088a48.323 48.323 0 01-.273-.443 15.846 15.846 0 00-2.9-3.65 15.763 15.763 0 00-3.737-2.784 14.62 14.62 0 01-3.497-2.606 14.644 14.644 0 01-2.713-3.416 49.15 49.15 0 00-.226-.37l-.06-.095a18.16 18.16 0 00-.258-.405l-.032-.047a13.89 13.89 0 00-.263-.383l-.064-.09a13.833 13.833 0 00-.336-.445c-.009-.01-.015-.02-.023-.03 3.335-1.123 8.125.53 11.736 4.14zm-13.766-2.92c.28-.278.594-.52.934-.72l.028.034c.129.157.246.307.355.452l.054.072c.11.148.21.291.304.431l.056.083a16.75 16.75 0 01.312.486l.252.411a15.817 15.817 0 002.897 3.648 15.78 15.78 0 003.736 2.784 14.603 14.603 0 013.498 2.605c1.07.998 1.986 2.15 2.716 3.42l.182.297c.02.034.043.069.064.102l.13.21.08.124a14.528 14.528 0 00.734 1.035c.053.07.11.14.168.212a14.896 14.896 0 00.328.391l.153.176.038.044a4.153 4.153 0 01-.337.385 4.464 4.464 0 01-.613.508l-.02-.023c-.038-.042-.071-.082-.107-.124-.067-.078-.135-.156-.197-.231l-.11-.138a13.263 13.263 0 01-.492-.65l-.124-.181-.083-.122a19.636 19.636 0 01-.315-.494l-.058-.094a59.251 59.251 0 01-.173-.282 15.876 15.876 0 00-2.902-3.652 15.763 15.763 0 00-3.737-2.783 14.612 14.612 0 01-3.497-2.606 14.68 14.68 0 01-2.715-3.418c-.09-.148-.182-.297-.277-.449l-.06-.096a17.656 17.656 0 00-.374-.57 13.816 13.816 0 00-.367-.509l-.068-.088c-.144-.188-.299-.38-.474-.585l-.004-.006.085-.089zm2.918 13.766c-4.045-4.046-5.573-9.448-3.712-12.704l.042.051c.125.155.242.304.35.448l.057.08c.097.132.188.26.272.387l.047.068c.093.14.182.278.267.415a53.396 53.396 0 01.3.488 15.855 15.855 0 002.9 3.65 15.772 15.772 0 003.736 2.782 14.619 14.619 0 013.498 2.605 14.715 14.715 0 012.718 3.421c.09.148.181.297.275.448l.066.105c.098.156.2.314.311.477l.069.1c.114.165.235.335.37.513l.018.024c.137.18.293.37.459.567.021.024.037.047.059.072-3.313 1.371-8.357-.253-12.102-3.997zm-5.665 2.163c5.728 0 10.583 2.725 11.503 6.324l-.068-.008c-.212-.023-.414-.05-.602-.08-.025-.003-.048-.008-.073-.012-.173-.028-.338-.06-.497-.092l-.095-.02a16.865 16.865 0 01-.488-.111l-.125-.032a52.711 52.711 0 01-.453-.115 15.896 15.896 0 00-4.628-.601 15.797 15.797 0 00-4.622.602 14.634 14.634 0 01-4.327.565 14.658 14.658 0 01-4.33-.564c-.145-.038-.29-.076-.439-.113l-.122-.03a17.48 17.48 0 00-.488-.114l-.082-.017a14.344 14.344 0 00-.488-.095l-.093-.017c-.187-.032-.386-.06-.595-.086l-.06-.009c1.477-3.153 6.014-5.375 11.172-5.375zM1.282 25.215l.022.003c.226.023.434.05.633.08l.086.014a12.573 12.573 0 01.65.122c.168.036.331.073.49.112l.11.027.468.12c1.503.428 3.061.631 4.624.602 1.562.03 3.12-.174 4.622-.602a14.613 14.613 0 014.327-.565 14.705 14.705 0 014.335.564l.312.08.121.03c.072.019.144.037.218.054l.13.031.221.05.142.03c.074.017.15.032.229.047l.152.029c.08.015.163.029.247.043l.158.025c.09.014.186.026.281.04l.156.02c.112.013.229.025.348.037l.127.012.021.003v.04a4.851 4.851 0 01-.132 1.112l-.024-.003a12.93 12.93 0 01-.622-.08c-.03-.006-.061-.01-.09-.014a12.707 12.707 0 01-.648-.122 17.465 17.465 0 01-.483-.112l-.114-.028a52.144 52.144 0 01-.462-.118 15.813 15.813 0 00-4.623-.602 15.794 15.794 0 00-4.622.602 14.634 14.634 0 01-4.327.565 14.727 14.727 0 01-4.335-.564l-.319-.082-.097-.024-.234-.059-.134-.031a17.03 17.03 0 00-.213-.049l-.152-.032a16.089 16.089 0 00-.607-.114l-.18-.029a10.484 10.484 0 00-.245-.034l-.193-.026-.284-.03-.188-.019-.015-.001a4.91 4.91 0 01.113-1.154z"/><path d="M6.688 30.118a9.067 9.067 0 01-.684-.39.584.584 0 00-.621.987c.242.153.499.3.769.44a.584.584 0 00.536-1.037zm13.762-.95c-1.825 1.471-4.598 2.315-7.61 2.315a14.485 14.485 0 01-4.488-.675.583.583 0 00-.362 1.11c1.568.498 3.205.745 4.85.733 3.274 0 6.314-.939 8.343-2.575a.584.584 0 00-.733-.908zM16.69 9.213a9.216 9.216 0 01-.165-.681.584.584 0 00-1.144.229c.05.252.112.507.184.766a.584.584 0 001.124-.314zm11.443 10.079a.583.583 0 00-.546-.619c-2.4-.147-5.248-1.596-7.43-3.78a14.2 14.2 0 01-2.709-3.723.584.584 0 00-1.046.518 15.37 15.37 0 002.929 4.031c2.412 2.412 5.471 3.953 8.184 4.12a.584.584 0 00.618-.547z"/></g><path d="M34.876 35.18c-.888 0-1.636-.36-2.244-1.08-.608-.72-.912-1.768-.912-3.144 0-1.016.164-1.94.492-2.772.328-.84.84-1.524 1.536-2.052a3.823 3.823 0 012.376-.804c.88 0 1.52.216 1.92.648.4.424.6.912.6 1.464 0 .552-.14.996-.42 1.332-.28.328-.644.492-1.092.492-.144 0-.32-.032-.528-.096.184-.192.344-.46.48-.804a2.77 2.77 0 00.216-1.056c0-.352-.096-.652-.288-.9-.184-.256-.48-.384-.888-.384-.616 0-1.168.256-1.656.768-.48.504-.844 1.128-1.092 1.872a7.308 7.308 0 00-.36 2.28c0 1.104.212 1.932.636 2.484.424.544.972.816 1.644.816.448 0 .908-.136 1.38-.408.472-.272.86-.664 1.164-1.176.12 0 .232.036.336.108.104.072.156.144.156.216-.448.848-1.012 1.436-1.692 1.764-.592.288-1.18.432-1.764.432zm9.576-4.116c0-.784-.1-1.344-.3-1.68-.192-.344-.472-.516-.84-.516-.36 0-.724.18-1.092.54-.368.352-.66.792-.876 1.32a4.354 4.354 0 00-.312 1.632c0 .56.108 1.048.324 1.464.216.408.544.612.984.612.624 0 1.132-.368 1.524-1.104a4.77 4.77 0 00.588-2.268zm-3.48-.468c.304-.864.712-1.492 1.224-1.884.52-.4 1.044-.6 1.572-.6.536 0 .98.236 1.332.708.352.464.528 1.096.528 1.896 0 .88-.168 1.696-.504 2.448-.376.832-.92 1.412-1.632 1.74a2.905 2.905 0 01-1.272.276c-.648 0-1.216-.268-1.704-.804-.488-.544-.732-1.316-.732-2.316 0-1.008.216-1.88.648-2.616.432-.736 1.02-1.248 1.764-1.536.16 0 .24.08.24.24-.792.52-1.28 1.336-1.464 2.448zm10.19-2.172c0 .336-.064.568-.192.696s-.316.192-.564.192h-1.008a31.76 31.76 0 00-.408 4.932c0 .472.008.812.024 1.02.024.216.08.58.168 1.092-.904-.36-1.356-1.184-1.356-2.472 0-1.448.148-2.948.444-4.5-.4.064-.812.184-1.236.36a2.829 2.829 0 01-.024-.348c0-.384.124-.64.372-.768.256-.136.62-.204 1.092-.204.688-2.816 1.748-4.224 3.18-4.224.472 0 .86.132 1.164.396.304.264.456.58.456.948s-.108.68-.324.936c-.216.248-.5.372-.852.372a.925.925 0 01-.396-.084c.096-.088.192-.232.288-.432.104-.208.156-.42.156-.636a.882.882 0 00-.18-.564.525.525 0 00-.444-.228c-.848 0-1.508 1.184-1.98 3.552.776 0 1.308-.116 1.596-.348.016.112.024.216.024.312zm4.899 0c0 .336-.064.568-.192.696s-.316.192-.564.192h-1.008a31.76 31.76 0 00-.408 4.932c0 .472.008.812.024 1.02.024.216.08.58.168 1.092-.904-.36-1.356-1.184-1.356-2.472 0-1.448.148-2.948.444-4.5-.4.064-.812.184-1.236.36a2.829 2.829 0 01-.024-.348c0-.384.124-.64.372-.768.256-.136.62-.204 1.092-.204.688-2.816 1.748-4.224 3.18-4.224.472 0 .86.132 1.164.396.304.264.456.58.456.948s-.108.68-.324.936c-.216.248-.5.372-.852.372a.925.925 0 01-.396-.084c.096-.088.192-.232.288-.432.104-.208.156-.42.156-.636a.882.882 0 00-.18-.564.525.525 0 00-.444-.228c-.848 0-1.508 1.184-1.98 3.552.776 0 1.308-.116 1.596-.348.016.112.024.216.024.312zm3.779.276c-.48 0-.888.276-1.224.828-.328.552-.548 1.2-.66 1.944h.336c.424 0 .792-.06 1.104-.18.312-.12.552-.276.72-.468.32-.368.48-.784.48-1.248 0-.264-.064-.476-.192-.636-.12-.16-.308-.24-.564-.24zm1.692 4.86c-.368.6-.772 1.02-1.212 1.26-.44.24-.952.36-1.536.36-.576 0-1.08-.256-1.512-.768-.432-.512-.648-1.232-.648-2.16 0-1.056.284-2 .852-2.832.28-.4.644-.724 1.092-.972a3.089 3.089 0 011.5-.372c1.2 0 1.8.58 1.8 1.74 0 .696-.272 1.244-.816 1.644-.536.392-1.16.588-1.872.588-.472 0-.896-.044-1.272-.132-.008.08-.012.204-.012.372 0 1.416.42 2.124 1.26 2.124.792 0 1.436-.392 1.932-1.176.296.04.444.148.444.324zm4.812-4.86c-.48 0-.888.276-1.224.828-.328.552-.548 1.2-.66 1.944h.336c.424 0 .792-.06 1.104-.18.312-.12.552-.276.72-.468.32-.368.48-.784.48-1.248 0-.264-.064-.476-.192-.636-.12-.16-.308-.24-.564-.24zm1.692 4.86c-.368.6-.772 1.02-1.212 1.26-.44.24-.952.36-1.536.36-.576 0-1.08-.256-1.512-.768-.432-.512-.648-1.232-.648-2.16 0-1.056.284-2 .852-2.832.28-.4.644-.724 1.092-.972a3.089 3.089 0 011.5-.372c1.2 0 1.8.58 1.8 1.74 0 .696-.272 1.244-.816 1.644-.536.392-1.16.588-1.872.588-.472 0-.896-.044-1.272-.132-.008.08-.012.204-.012.372 0 1.416.42 2.124 1.26 2.124.792 0 1.436-.392 1.932-1.176.296.04.444.148.444.324zm7.153-2.268c.264-.904.668-1.664 1.212-2.28.552-.624 1.068-.936 1.547-.936.48 0 .82.148 1.02.444.2.288.3.684.3 1.188 0 .496-.08 1.196-.24 2.1-.152.904-.228 1.564-.228 1.98 0 .408.053.708.157.9.104.184.28.344.528.48a6.201 6.201 0 01-.445.012c-.512 0-.892-.104-1.14-.312-.24-.216-.36-.58-.36-1.092 0-.296.08-.892.24-1.788.16-.904.24-1.568.24-1.992 0-.528-.183-.792-.551-.792-.216 0-.456.116-.72.348-.264.224-.52.532-.768.924-.24.384-.444.876-.612 1.476-.16.592-.24 1.18-.24 1.764 0 .576.023 1.004.072 1.284-.192.016-.3.024-.325.024-.376 0-.656-.08-.84-.24-.175-.16-.264-.408-.264-.744 0-.344.072-1 .216-1.968.424-2.976.636-5.236.636-6.78 0-.696-.047-1.164-.143-1.404.464.168.788.416.972.744.191.328.287.78.287 1.356 0 .4-.08 1.24-.24 2.52-.151 1.28-.255 2.208-.311 2.784zm10.525-.228c0-.784-.1-1.344-.3-1.68-.192-.344-.472-.516-.84-.516-.36 0-.724.18-1.092.54-.368.352-.66.792-.876 1.32a4.354 4.354 0 00-.312 1.632c0 .56.108 1.048.324 1.464.216.408.544.612.984.612.624 0 1.132-.368 1.524-1.104a4.77 4.77 0 00.588-2.268zm-3.48-.468c.304-.864.712-1.492 1.224-1.884.52-.4 1.044-.6 1.572-.6.536 0 .98.236 1.332.708.352.464.528 1.096.528 1.896 0 .88-.168 1.696-.504 2.448-.376.832-.92 1.412-1.632 1.74a2.905 2.905 0 01-1.272.276c-.648 0-1.216-.268-1.704-.804-.488-.544-.732-1.316-.732-2.316 0-1.008.216-1.88.648-2.616.432-.736 1.02-1.248 1.764-1.536.16 0 .24.08.24.24-.792.52-1.28 1.336-1.464 2.448zm10.718-2.544c.688 0 1.032.356 1.032 1.068 0 .128-.076.692-.228 1.692-.152.992-.228 1.844-.228 2.556s.076 1.34.228 1.884c-.488-.192-.828-.464-1.02-.816-.184-.352-.276-.788-.276-1.308 0-.2.044-.652.132-1.356-.24.912-.612 1.68-1.116 2.304-.504.616-.972.924-1.404.924-.912 0-1.368-.664-1.368-1.992 0-.44.064-1.052.192-1.836.136-.792.204-1.392.204-1.8 0-.408-.056-.82-.168-1.236.512 0 .896.088 1.152.264.256.176.384.516.384 1.02 0 .272-.084.832-.252 1.68-.168.848-.252 1.476-.252 1.884 0 .592.184.888.552.888.304 0 .62-.236.948-.708.336-.48.616-1.1.84-1.86a7.95 7.95 0 00.336-2.256c0-.336-.024-.66-.072-.972a4.77 4.77 0 01.384-.024zm5.393.612c-.264 0-.504.084-.72.252-.208.168-.312.4-.312.696 0 .288.096.56.288.816.2.256.44.484.72.684l.852.612c.672.496 1.008 1.028 1.008 1.596 0 .568-.228 1.032-.684 1.392-.456.352-1.04.528-1.752.528-.704 0-1.252-.14-1.644-.42-.384-.28-.576-.608-.576-.984 0-.384.096-.684.288-.9a.899.899 0 01.696-.324.9.9 0 01.408.096 1.244 1.244 0 00-.264.792c0 .304.092.56.276.768.192.208.452.312.78.312.336 0 .62-.084.852-.252.232-.176.348-.396.348-.66s-.068-.496-.204-.696a1.978 1.978 0 00-.516-.516c-.2-.144-.42-.304-.66-.48-.24-.176-.464-.348-.672-.516a2.272 2.272 0 01-.504-.648 1.859 1.859 0 01-.204-.864c0-.568.216-1.032.648-1.392.432-.368.976-.552 1.632-.552.656 0 1.136.136 1.44.408.304.272.456.58.456.924 0 .336-.084.616-.252.84a.785.785 0 01-.648.324c-.128 0-.276-.036-.444-.108.208-.256.312-.532.312-.828 0-.296-.092-.52-.276-.672-.176-.152-.4-.228-.672-.228zm6.624.036c-.48 0-.888.276-1.224.828-.328.552-.548 1.2-.66 1.944h.336c.424 0 .792-.06 1.104-.18.312-.12.552-.276.72-.468.32-.368.48-.784.48-1.248 0-.264-.064-.476-.192-.636-.12-.16-.308-.24-.564-.24zm1.692 4.86c-.368.6-.772 1.02-1.212 1.26-.44.24-.952.36-1.536.36-.576 0-1.08-.256-1.512-.768-.432-.512-.648-1.232-.648-2.16 0-1.056.284-2 .852-2.832.28-.4.644-.724 1.092-.972a3.089 3.089 0 011.5-.372c1.2 0 1.8.58 1.8 1.74 0 .696-.272 1.244-.816 1.644-.536.392-1.16.588-1.872.588-.472 0-.896-.044-1.272-.132-.008.08-.012.204-.012.372 0 1.416.42 2.124 1.26 2.124.792 0 1.436-.392 1.932-1.176.296.04.444.148.444.324z" fill="#000"/><defs><clipPath id="clip0_4_134"><path fill="#fff" d="M0 0h35v35H0z"/></clipPath></defs></svg>